<?xml version="1.0" encoding="utf-8"?>
<!-- Generator: Adobe Illustrator 19.2.1, SVG Export Plug-In . SVG Version: 6.00 Build 0)  -->
<svg version="1.1" id="Layer_7" xmlns="http://www.w3.org/2000/svg" xmlns:xlink="http://www.w3.org/1999/xlink" x="0px" y="0px"
	 viewBox="0 0 464.5 231.5" style="enable-background:new 0 0 464.5 231.5;" xml:space="preserve">
<style type="text/css">
	.st0{fill:#6DA3BC;}
	.st1{fill:#84B3C9;}
	.st2{fill:#AACADB;}
</style>
<path class="st0" d="M411.3,36.4c15.7,11.9,34.8,0.7,45.8,13.5c3.3,3.8,4.7,8.4,6.1,8c1.8-0.5,1.9-8.3-0.3-14.7
	c-1-2.9-4.1-10.3-16.1-17.7c-8.2-5.1-14.2-6.2-42.9-11.5c-14.9-2.8-28-5.2-28.2-4.2c-0.2,1,11,2.4,21.9,11
	C406.8,27.9,404.3,31.1,411.3,36.4z"/>
<path class="st1" d="M51.9,156.9c6.1-5,18.7-15.2,37.1-26.5c0.2-0.2,2.5-1.5,5-3c31.5-18.5,72.6-36.9,72.6-36.9
	c44.6-19.9,41.5-31.5,108.9-67.3C309.9,5,322.8,1.6,335.7,0.4c8.8-0.8,41-2.6,72.5,17.5c25.2,16.1,19.7,12.4,33.1,29.2
	c3.6,4.6,21.4,21.2,20.1,22.5c-3.6,3.9-33.5,3.4-44.3-13.3c-0.3-0.4-1.7-2.9-4.5-7.8c-10.9-18.7-11.1-19.7-12.2-21
	c-8.3-10.7-40.1-9.5-63,5.1C313.7,47.7,315.1,67,287.7,120c-18.7,36-28,54.1-40.8,64.8c-35.2,29.3-85.6,31.7-126.1,33.5
	c-17.3,0.8-33.1-0.2-33.1-0.2c-20.2-1.3-18.4-3.3-33.2-3.7c-18.9-0.5-28.1,2.6-43.2-2.8c-6.6-2.4-9.9-3.6-10.9-6.5
	C-2,198.3,9.6,191.3,51.9,156.9z"/>
<path class="st2" d="M22.7,213.6c-2.3-5.3,33.9-36.1,75.7-33.9c2,0.1,6.4,0.8,15.1,2.2c48.1,7.5,58.9,18.5,89.9,18.2
	c9.3-0.1,17.1-1.1,17.3,0.2c0.4,2.2-19.1,8.1-33.8,11.6c-40,9.5-85,10.8-108.6,5.7c-4.9-1.1-12.3-3.1-23-3.2
	c-5.2,0-10.1,0.4-19.8,0.3C27.3,214.5,23.1,214.4,22.7,213.6z"/>
<path class="st0" d="M189.5,174.8c22,3.9,62.3-25.7,95.9-71.4c19.4-26.3,26.5-44.3,28.2-43.5c2.6,1.3-17.2,44.7-35.9,79.6
	c-16.9,31.6-29.9,50.5-47.3,54.9c-14.7,3.6-25.5-0.7-25.5-0.7c-3.7-1.4-7-3.8-13.8-8.5c-6.2-4.3-12.4-8.6-11.7-10.4
	C180.1,172.9,187.6,174.4,189.5,174.8z"/>
<path class="st0" d="M143.5,181.1c2.2-8.7,27.4-11.6,47-9.1c2.5,0.3,4.3,0.7,5.8,0.9c25.6,4.7,40.3,15.5,53.9,21.1
	c26.5,10.9,46.3-3.3,49.6,4.1c2.7,6.2-9.2,18.3-19.6,24.6c-24.4,14.8-59.2,9.5-77.1-7.5c-2.2-2.1-1.8-2.1-3.8-3.8
	c-15.5-13.6-31.5-5.1-46.4-16.4C151.1,193.8,142,186.9,143.5,181.1z"/>
<path class="st2" d="M131.1,185.4c-0.1-6.8,32.4-18,60.5-9.8c2.7,0.8,6.4,2.3,13.9,5.3c23.5,9.4,25.6,12.8,39.3,16.9
	c13.2,3.8,20.5,3.4,20.7,5.8c0.2,3.2-12.9,7.1-22.2,8.6c-2.2,0.4-6.1,0.9-10.8,0.9c-14.7-0.2-21.3-6.4-35.1-10.9
	c-13.3-4.3-12.8-0.4-33.3-4.6C150.6,194.6,131.1,190.6,131.1,185.4z"/>
</svg>
