<?xml version="1.0" encoding="utf-8"?>
<!-- Generator: Adobe Illustrator 19.2.1, SVG Export Plug-In . SVG Version: 6.00 Build 0)  -->
<svg version="1.1" id="Layer_8" xmlns="http://www.w3.org/2000/svg" xmlns:xlink="http://www.w3.org/1999/xlink" x="0px" y="0px"
	 viewBox="0 0 386.3 189" style="enable-background:new 0 0 386.3 189;" xml:space="preserve">
<style type="text/css">
	.st0{fill:#B4AEB8;}
	.st1{fill:#9997AD;}
	.st2{fill:#E6E7E8;}
	.st3{fill:#D1D3D4;}
	.st4{fill:#A7A9AC;}
	.st5{fill:#9E9CB0;}
</style>
<path class="st0" d="M91.9,94.7c-11.7-21.2-0.5-54-18.5-85.1c-1.5-2.6-6.1-10.4-9.1-9.6c-3.6,1-3.6,13.9-3.2,14c0.2,0,1-3.2,0.9-3.2
	c-0.2-0.1-3.7,7.2-4.3,16.1c-0.2,3.3,0,7.2,0.4,7.2c0.4,0,1-3.4,1.1-3.4c0.1,0-2.4,7.1-2.2,15.1c0.2,8.5,3.4,16.9,3.1,17
	c-0.1,0-0.1-0.3-0.4-0.4c-0.6-0.1-1.5,2.1-1.9,3.4c-1.1,4.3,1.2,8.1,0.8,8.3c-0.5,0.2-2.3-6.7-7.6-9.8C45.8,61.4,38.6,63,38.6,63
	c0,0,2.8,0.6,3.4-0.4c1-1.7-5.3-8.4-13.3-10.5c-3.5-0.9-7.5-1-7.6-0.7c0,0.2,2.6,1.3,3,0.7c0.8-1.1-6.5-10.4-17.1-12
	c-3.2-0.5-5.4-0.8-6.4,0.4c-3.2,3.7,5.5,19.4,17.2,30.2C36.7,88.1,50.6,81,80.8,98c3.2,1.8,11.3,6.6,13.3,4.5
	C95.5,100.9,92.8,96.2,91.9,94.7z"/>
<path class="st0" d="M333.4,114.8c10.3,3.3,3.6,36.5-16.6,57.4c-4,4.1-14.4,15.4-23.3,15.2c-8-0.2-14.1-10.1-12.4-15.5
	C290.5,142.2,320.8,110.8,333.4,114.8z"/>
<path class="st1" d="M316.1,170.3c-1.6-1.1-9.4,12.5-22.4,14c-2,0.2-5.6,0.2-5.1-0.5c2-3.3,14.3-10.3,14-11
	c-0.3-0.8-14.3,7.3-15.5,5.2c-0.6-1.1,6.1-5.3,5.5-6.3c-0.5-0.9-6.1,4-7.3,2.5c-1.4-1.7,2.4-9.6,2.8-10c3.3-3.8,9.1-6.5,8.8-7.1
	c-0.4-0.8-7.5,2.9-10.9,5.9c-4.4,3.9-5.1,8.2-5.7,12.6c-0.7,5.2-0.7,7.9,2.9,10.9c6.4,5.5,16.3,1.6,27.2-8
	C314.6,174.9,317,170.9,316.1,170.3z"/>
<path class="st2" d="M384.8,30.2c-4.6-15.5-36-21.5-50.6-12.8c-8,4.8-12.2,15.8-13.5,20.5c-1.8,6.7-2.7,17.5-2.8,17.6
	c-13.2-0.8-18.8,0.4-21.6,1.8c0,0-0.1,0-5.7,2.9c-7.1-0.6-16.6-0.6-27.2,2.4c-3.4,1-5.8,1.9-6.8,2.3C186.1,92.5,149,107,115.4,97.9
	C92.6,91.6,75.6,81,75.6,81c-10.3-6.5-16.5-12.3-17.6-11.3c-2.2,2,13.6,26,30.8,43c33.9,33.5,75.5,42.2,100.7,47.2
	c38.9,7.7,98.6,19.5,141.9-16.5c25-20.8,33.3-49,33.3-49c0.5-1.9,1.3-4.6,2.2-8c3-10.5,13-18.9,15.2-25
	C387.8,45.6,386.6,36.5,384.8,30.2z"/>
<path class="st0" d="M287.9,76.1c0.2,16.1-9.1,28.2-24.2,47.8c0,0-3.1,4.1-8.5,8.6c-5,4.2-14,10.7-17.6,10
	c-4.2-0.8-0.8-9.5-1.8-11.6c-4.7-10.3-1.3-21.2,1-28.4c2.4-7.3,5.6-17.5,15.2-26.2c9.8-8.9,26.4-16.5,32.9-10.9
	C287.7,67.6,287.8,71.5,287.9,76.1z"/>
<path class="st3" d="M331,63.4c7.1,10.6,23.6,16.5,35.8,11.2c5.3-2.3,8.2-6.7,9-8c1.8-2.5,5.3-8.6,3.4-10.8c-1.9-2.1-6.7,2-11.4-0.5
	c-3.8-2-3.4-6.2-6.3-6.8c-3-0.6-4.3,4.2-9.1,6.9c-9.5,5.3-21.4-3-23.8,0.7C327.4,58,329.9,61.8,331,63.4z"/>
<path class="st4" d="M361,53c3.3-0.3,6.5-2.7,6.2-4c-0.6-2.5-13.5-2.8-14.2-0.5C352.7,50,356.6,53.4,361,53z"/>
<path class="st5" d="M244,91c0.6,0.5-5.9,7.1-7.9,17.9c-0.2,1.1-0.9,4.7,0,5.1c1.6,0.7,7-10,7.6-9.7c0.1,0.1-5.1,8.7-7,18.2
	c-0.2,1-0.6,3.1,0,3.4c1.2,0.6,5.2-7.3,6.2-6.8c0.5,0.2-4.7,19.3-4.7,19.3s0.1,2.6,0.9,3.1c3.1,2,13-10.2,13.6-9.7
	c0.5,0.4-6.1,10.5-16.1,13.4c-2.4,0.7-3.5,0.5-4.3,0c-3.8-2.7,0.7-15.8,0.2-15.9c-0.2-0.1-0.7,2-1.1,2c-0.8-0.1-1.2-6.6-0.6-12.8
	c0.5-5.4,1.6-10.4,3.9-15.1C238.2,96.4,243.4,90.6,244,91z"/>
</svg>
