<?xml version="1.0" encoding="utf-8"?>
<!-- Generator: Adobe Illustrator 19.2.1, SVG Export Plug-In . SVG Version: 6.00 Build 0)  -->
<svg version="1.1" id="Layer_11" xmlns="http://www.w3.org/2000/svg" xmlns:xlink="http://www.w3.org/1999/xlink" x="0px" y="0px"
	 viewBox="0 0 371.7 309.4" style="enable-background:new 0 0 371.7 309.4;" xml:space="preserve">
<style type="text/css">
	.st0{fill:#58595B;}
	.st1{fill:#F1F2F2;}
	.st2{fill:#92847B;}
	.st3{fill:#D1D3D4;}
	.st4{fill:#A7A9AC;}
</style>
<path class="st0" d="M85.4,226.2c-2.5-3.7-2.2-6-3.7-11.4c-0.5-1.7-2.9-10.2-8.4-17.5c-2.9-3.8-5.7-6.2-7.6-7.8
	C40.7,169.4,18.1,150,8.8,121.8c-4.3-12.9-9.9-31-8.6-36.4c4.2-17,14.3-33.1,21.8-31.5c3,0.7,1.5,14.5,5.5,22.9
	c3.8,7.9,5.5,14.2,5.9,15.4c3.8,12.6,23.9,16.3,47.8,30.7c23.5,14.1,28.9,22.6,37.5,42.2c1.6,3.7,1.6,14.4,6.7,19.6
	c1.4,1.4,2.2,1.4,3.9,2.5c8.1,5.1,10.7,14.6,17.5,36.7c1.3,4.3-2.3,5.8-3.1,7.4c-2.3,4.5-10.8,1.1-29.7,2.4
	c-10.7,0.7-16.5,2.4-22.5-1.4C87.9,230,85.6,226.6,85.4,226.2z"/>
<path class="st1" d="M81.1,219.6c-40.6,2.4-54.6,14.2-57.2,20.5c-1.7,4.2-1.6,8.5-1.6,8.5c0,2.2,0.4,10.3,5.9,14.9
	c5.7,4.8,11.2,1,27.5,5.2c0.4,0.1,3.7,1,7.2,2.2c15.8,5.7,22.3,14.5,33,21.1c7.1,4.4,14.2,6.1,28.3,9.4c33.9,7.9,63,4.9,70.4,4.1
	c30.6-3.6,35.8-11.2,61.8-9.2c12.9,1,22.2,3.6,23,1.4c1.3-3.4-18.4-12.7-45.7-28.5c-40.9-23.6-35.7-25.2-54.1-33.9
	C138.9,216.2,102.3,218.3,81.1,219.6z"/>
<path class="st2" d="M249.9,284.8c-0.7,2.8,28.9,11.3,28.4,13c-0.5,1.5-30.1-2.3-30.2-1.7c-0.1,0.5,26.3,2.9,38.6,9.1
	c4.8,2.4,7.3,3.3,12.5,4.1c3.8,0.6,7.5-1.7,7.8-2.3c0.9-1.5-4.3-3-7-4.8c-0.3-0.2-2.7-1.7-3.4-1.1c-0.7,0.7,0.6,3.9,2.7,4.9
	c3.3,1.6,12.8-4.6,13-7.6c0.1-2.3-6.2-1.8-11.3-3.5c-12.2-4-29-8-31.3-8.5C267.6,286.1,250.4,282.8,249.9,284.8z"/>
<path class="st2" d="M7.6,263.4c1-1.8,2.5-3,5.2-5.1c2.5-1.9,3-1.8,4.9-3.2c5.3-4,5.5-8.2,7.7-8.1c2.4,0.1,2.4,5.2,6.6,6.9
	c3,1.2,5.5-0.3,6.1,0.9c0.7,1.3-1.4,4.4-4.2,5.9c-2.9,1.6-4.3,0.2-8.3,1.1c-3.9,0.9-6.6,3.2-9.8,5.9c-4.7,4-5.5,6.5-7,6.2
	C6.8,273.5,5.5,267.5,7.6,263.4z"/>
<path class="st3" d="M67.8,222.1c-0.6,2,2.4,3.2,5.8,8.4c0.6,0.9,6.9,10.9,5,21.5c-1.3,7.1-5.4,9.9-4.2,11.1
	c1.7,1.7,12.2-3.4,18.1-12.7c2-3.1,2.6-5.3,3.2-6.8c7.4-17.2,57.6-12.2,58-15.9c0.2-2.5-21.9-7-40.9-8.8c-6.4-0.6-13.1-0.5-26.6-0.2
	C74,219,68.5,219.6,67.8,222.1z"/>
<path class="st4" d="M91.9,220.1c-1.4,3.8,8.4,8.9,6.8,15.3c-0.9,3.8-5,5.4-4.7,6c0.7,1.2,13.2-6.7,29-11.2c16.2-4.6,26.5-3,26.7-5
	c0.2-2.7-20.6-5.9-32.8-7.1C94.2,215.7,92.3,219.1,91.9,220.1z"/>
<path class="st0" d="M104.5,236.8c-2.1-7.4,48.6-17.6,93.2-65c6.3-6.6,4.6-5.8,8.6-9.6c20.1-19.4,42.2-22.6,123.5-32
	c24.5-2.8,41-4.7,41.9-1.1c0.5,1.8-4.9,5.3-15.8,12c-13.9,8.7-22.5,13.9-35.4,18.3c-8.7,2.9-8.2,1.7-17.4,4.7
	c-3.9,1.2-16,5.4-32.4,15.2c-22.5,13.6-43,32-45.8,34.5c-4.2,3.8-9.9,9.2-19,13.2c-4.5,2-6,2-11.3,4.7c-8.4,4.3-8.4,6.2-15.1,9.2
	c-7.5,3.3-11.7,2.7-12.6,5.7c-1.1,3.5,3.6,7.3,2.1,9.2c-1,1.2-3.8,0.6-4.6,0.4c-5.3-1.3-5.9-5.6-10.3-6.6c-3-0.7-3.7,1.1-7.4,1.1
	c-5.4,0-9.3-3.7-11.2-5.2C124,236.2,105.8,241.3,104.5,236.8z"/>
<path class="st0" d="M239.3,103.1"/>
</svg>
