<?xml version="1.0" encoding="utf-8"?>
<!-- Generator: Adobe Illustrator 19.2.1, SVG Export Plug-In . SVG Version: 6.00 Build 0)  -->
<svg version="1.1" id="Layer_9" xmlns="http://www.w3.org/2000/svg" xmlns:xlink="http://www.w3.org/1999/xlink" x="0px" y="0px"
	 viewBox="0 0 163.5 266.1" style="enable-background:new 0 0 163.5 266.1;" xml:space="preserve">
<style type="text/css">
	.st0{fill:#F8F1E7;}
	.st1{fill:#FFDFB4;}
	.st2{fill:#414042;}
	.st3{fill:#58595B;}
	.st4{fill:none;}
</style>
<path class="st0" d="M39.5,58.8c0.7,11.5-4.1,20.3-5.2,22.6c-10,19.9-6.2,61.2-5.8,65.5c4,41.3,25.4,80.9,36.5,88.1
	c1,0.7,4.5,2.8,4.6,5.8c0.1,3.9-5.7,7.7-10.4,9.3c-7.7,2.6-12.7,4.6-13.3,6.1c-0.8,1.9,7.5,4.7,18.5,6.7c13.9,2.5,25.6-5.5,27.8-7
	c16.1-10.8,20.3-31.2,24.3-58.5c16.5-111.9,0.8-144.5-5.8-155.9c-2.2-3.7-6.5-10.5-13.9-17.4c0,0-22.6-21-53.9-19.1
	c-5.4,0.3-10,1.4-13.9,4.6c-0.7,0.6-7.3,6.3-7,13.9c0.4,9,9.9,10.3,15.1,24.3C37.9,49.6,39.2,53.6,39.5,58.8z"/>
<path class="st1" d="M55.2,6.6c-13.7-2.1-33.8-0.1-37.1,9.6c-1.2,3.4,0.1,6.8,2.3,12.5c1.5,3.8,4.5,11.7,12.2,15.1
	c1.9,0.9,5.9,2.6,9,0.9c2.8-1.6,4-9.6,4-9.6s-0.9-5.6-2.6-7.5c-2.3-2.7-5.4-2.4-5.8-4.3c-0.6-2.7,4.6-6.4,9-8.4
	c14.6-6.5,30.9,2.3,31.3,1.2C77.8,15,68.7,8.7,55.2,6.6z"/>
<path class="st2" d="M111.4,37.9c1.7-1.8-13.5-22.1-29-26.7c-1.3-0.4-5.5-1.5-11.6-3.5c-7.2-2.3-10-3.6-13.3-4.6
	c-2.7-0.9-12.9-4.1-22-2.9C21.8,2.1,8.1,14.4,4.8,29.8C2,42.4,6.6,54.8,7.7,54.7c0.6,0,1.2-4.4,0.6-4.6c-1.2-0.4-7.2,11.1-8.1,23.8
	c-0.1,1.4-0.4,5.5,0.6,5.8c1.6,0.4,2.9-10.8,11-16.2c5.5-3.7,8.2-0.7,17.4-4.1c1.6-0.6,16.7-6.2,16.8-15.1c0.1-4.7-4.1-8.3-4.6-8.7
	C36,31.2,30.7,34.2,27.9,31c-3.6-4.2-0.4-15.9,7-20.9c5-3.3,11.9-3.6,27.2,1.7C93.6,22.8,109.8,39.7,111.4,37.9z"/>
<path class="st3" d="M107.3,35c9.2,2.8,13.7,14.7,22.6,38.8c0.8,2.2,2,5.5,2.9,9.9c0,0,0.7,3.4,1.2,7c1.2,10.2,7.4,100.5-4.6,124.6
	c-0.9,1.9-4.8,8.9-4.6,18.5c0,2.6,0.1,4.2,0.6,5.8c4.4,13.6,38.2,12.8,38.2,16.8c0,2-8.4,3.9-13.9,4.6c-17.1,2.3-28.5-5.8-41.1-2
	c-0.4,0.1-0.8,1.2-4.6,2c-7,1.5-12.9,1.3-16.2-0.3c-2.2-1-3.5-0.2-3.5-3.2c0-3.5,6.5-4.6,11-7.5c14.3-9.3,17-40.7,5.8-49.3
	c-5-3.9-8.5,0.3-13.9-2.9c-19.2-11.2-1.8-78.7,0.6-88.1c2.2-8.5,3.3-11.3,4.1-18c1.7-15.7,0.1-44-16.2-53.3c-10-5.7-21.7-2.1-22-4.6
	c-0.3-2,6.9-6,14.5-5.8c9.5,0.3,11.6,7,22,8.7C99.6,38.3,100.7,33,107.3,35z"/>
<path class="st3" d="M60.2,231.5c-2-2.2-5.8-0.2-10.6,1c-8.1,4.5-14.8,3.8-14.7,7.1c0.1,2.9,7.8,2.5,9.9,3.3
	c7.3,2.9,11.8,4.2,12.2,4.2c3.3,1-0.1,2.7-18,6.4c-1.4,0.3-1.7,1.2-1.7,1.7c-0.3,1.6,17.6,14.4,36.5,9.9c6.3-1.5,12.8-4.9,12.6-7.5
	c-0.4-3.8-15.1-3.2-17.2-10.2c-0.9-3,1.3-4.2,0.3-8C68.3,235.4,62.3,233.7,60.2,231.5z"/>
<path class="st4" d="M68.3,246.3c-4,1.3-7.1,1.2-9.1,1c-6.6-0.9-9.1-4.9-15.8-5.8c-3.5-0.5-6.5,0.1-8.3,0.6"/>
<path class="st2" d="M88.8,82c1.1,26.2-8.3,45.6-11.8,63.1c-5,24.3-4,42.4,5.4,49.3c0.4,0.3,5.8,4.2,9.9,2.3
	c12.4-5.7-7.8-55.6,14.5-74.7c2.8-2.4,3.4-1.9,5.2-4.1c16.2-19.5-29.5-81.8-36.5-79.4C72.4,39.6,87.6,55.1,88.8,82z"/>
</svg>
