<?xml version="1.0" encoding="utf-8"?>
<!-- Generator: Adobe Illustrator 19.2.1, SVG Export Plug-In . SVG Version: 6.00 Build 0)  -->
<svg version="1.1" id="Layer_1" xmlns="http://www.w3.org/2000/svg" xmlns:xlink="http://www.w3.org/1999/xlink" x="0px" y="0px"
	 viewBox="0 0 694.6 577.2" style="enable-background:new 0 0 694.6 577.2;" xml:space="preserve">
<style type="text/css">
	.st0{fill:#8CCED6;}
	.st1{fill:none;}
</style>
<g>
	<g>
		<polygon class="st0" points="670.4,328.2 673.9,278.3 609.6,217 625.2,183 609.6,89 509.2,69 498.4,40 369.9,0 268.9,9.7 
			218.6,145 127.2,188.3 53.1,156 0,104.1 8.6,166.7 42.6,177 42.6,225 86.6,229 63.7,359 107.9,337.7 128.6,444.3 205.6,476 
			280.6,465.7 346.6,484.2 369.2,468.3 389.9,501.7 365.9,567.7 486.9,577.2 577.2,542 694.6,354.3 		"/>
	</g>
</g>
<line class="st1" x1="609.8" y1="458.3" x2="610.8" y2="366.9"/>
</svg>
